<svg width="200" height="200" viewBox="0 0 200 200" xmlns="http://www.w3.org/2000/svg">
  <defs>
    <linearGradient id="fileGradient" x1="0%" y1="0%" x2="100%" y2="100%">
      <stop offset="0%" stop-color="#4A90E2" />
      <stop offset="100%" stop-color="#5AB0E2" />
    </linearGradient>
    <linearGradient id="folderGradient" x1="0%" y1="0%" x2="100%" y2="100%">
      <stop offset="0%" stop-color="#FFD700" />
      <stop offset="100%" stop-color="#FFA500" />
    </linearGradient>
  </defs>

  <!-- Main file shape -->
  <rect x="40" y="20" width="120" height="160" rx="20" ry="20" fill="url(#fileGradient)" />

  <!-- Folded corner -->
  <path d="M140 20 L140 50 L170 50 Z" fill="#3A7BC8" />

  <!-- Inner content lines -->
  <rect x="60" y="70" width="80" height="10" rx="5" ry="5" fill="#FFFFFF" opacity="0.7" />
  <rect x="60" y="90" width="80" height="10" rx="5" ry="5" fill="#FFFFFF" opacity="0.7" />
  <rect x="60" y="110" width="80" height="10" rx="5" ry="5" fill="#FFFFFF" opacity="0.7" />

  <!-- Folder icon -->
  <path d="M70 130 L85 130 L90 125 L110 125 L110 155 L70 155 Z" fill="url(#folderGradient)" />
  
  <!-- Storage bar -->
  <rect x="60" y="165" width="80" height="5" rx="2.5" ry="2.5" fill="#FFFFFF" opacity="0.9" />
  <rect x="60" y="165" width="60" height="5" rx="2.5" ry="2.5" fill="#4CAF50" />
</svg>